G04 FreePCB version 1.359*
G04 C:\Files\Yellow Jacket\Particle IO Electron\Sketches\Wind Sensor PCB\CAM\bottom_solder_mask.grb*
G04 bottom solder mask layer *
G04 Scale: 100 percent, Rotated: No, Reflected: No *
%FSLAX24Y24*%
%MOIN*%
%LN bottom solder mask *%
G04 Rounded Rectangle Macro, params: W/2, H/2, R *
%AMRNDREC*
21,1,$1+$1,$2+$2-$3-$3,0,0,0*
21,1,$1+$1-$3-$3,$2+$2,0,0,0*
1,1,$3+$3,$1-$3,$2-$3*
1,1,$3+$3,$3-$1,$2-$3*
1,1,$3+$3,$1-$3,$3-$2*
1,1,$3+$3,$3-$1,$3-$2*%
G04 Rectangular Thermal Macro, params: W/2, H/2, T/2 *
%AMRECTHERM*
$4=$3/2*
21,1,$1-$3,$2-$3,0-$1/2-$4,0-$2/2-$4,0*
21,1,$1-$3,$2-$3,0-$1/2-$4,$2/2+$4,0*
21,1,$1-$3,$2-$3,$1/2+$4,0-$2/2-$4,0*
21,1,$1-$3,$2-$3,$1/2+$4,$2/2+$4,0*%
%ADD10C,0.005000*%
%ADD11RNDREC,0.038000X0.048000X0.028000*%
%ADD12C,0.086000*%
%ADD13C,0.096000*%
%ADD14C,0.141000*%
%ADD15RNDREC,0.048000X0.038000X0.028000*%
%ADD16C,0.144000*%
%ADD17C,0.044000*%
G90*
G70D02*

G04 Step and Repeat for panelization *

G04 ----------------------- Draw board outline (positive)*
%LPD*%
G54D10*
G01X38000Y33000D02*
G01X38000Y0D01*
G04 end of side 1*
G01X0Y0D01*
G04 end of side 2*
G01X0Y33000D01*
G04 end of side 3*
G01X38000Y33000D01*

G04 -------------- Draw Parts, Pads, Traces, Vias and Text (positive)*
%LPD*%
G04 Draw part Arduino*
G54D11*
G01X4000Y6000D03*
G01X5000Y6000D03*
G01X6000Y6000D03*
G01X7000Y6000D03*
G01X8000Y6000D03*
G01X9000Y6000D03*
G01X10000Y6000D03*
G01X11000Y6000D03*
G01X12000Y6000D03*
G01X13000Y6000D03*
G01X14000Y6000D03*
G01X15000Y6000D03*
G01X15000Y12000D03*
G01X14000Y12000D03*
G01X13000Y12000D03*
G01X12000Y12000D03*
G01X11000Y12000D03*
G01X10000Y12000D03*
G01X9000Y12000D03*
G01X8000Y12000D03*
G01X7000Y12000D03*
G01X6000Y12000D03*
G01X5000Y12000D03*
G01X4000Y12000D03*
G01X16000Y6500D03*
G01X16000Y7500D03*
G01X16000Y8500D03*
G01X16000Y9500D03*
G01X16000Y10500D03*
G01X16000Y11500D03*
G01X4000Y7500D03*
G01X4000Y8500D03*
G01X4000Y9500D03*
G01X4000Y10500D03*
G04 Draw part pad5*
G54D12*
G01X21000Y8000D03*
G01X22000Y8000D03*
G01X23000Y8000D03*
G01X24000Y8000D03*
G01X25000Y8000D03*
G01X26000Y8000D03*
G01X27000Y8000D03*
G01X27000Y11000D03*
G01X26000Y11000D03*
G01X25000Y11000D03*
G01X24000Y11000D03*
G01X23000Y11000D03*
G01X22000Y11000D03*
G01X21000Y11000D03*
G04 Draw part pad9*
G54D13*
G01X32000Y12000D03*
G04 Draw part pad10*
G01X32000Y13000D03*
G04 Draw part pad11*
G01X32000Y14000D03*
G04 Draw part pad12*
G01X32000Y15000D03*
G04 Draw part pad13*
G01X32000Y17000D03*
G04 Draw part pad14*
G01X32000Y18000D03*
G04 Draw part pad15*
G01X32000Y20000D03*
G04 Draw part pad16*
G54D12*
G01X19000Y5000D03*
G01X23000Y5000D03*
G04 Draw part pad17*
G54D13*
G01X24000Y5000D03*
G04 Draw part pad18*
G01X26000Y5000D03*
G04 Draw part pad19*
G54D12*
G01X16000Y16000D03*
G01X20000Y16000D03*
G04 Draw part pad20*
G01X32000Y22000D03*
G01X28000Y22000D03*
G04 Draw part pad21*
G01X32000Y27000D03*
G01X28000Y27000D03*
G04 Draw part pad22*
G01X36000Y25000D03*
G01X36000Y29000D03*
G04 Draw part pad23*
G01X34000Y24000D03*
G01X34000Y28000D03*
G04 Draw part hole*
G54D14*
G01X2000Y1500D03*
G04 Draw part hole2*
G01X36000Y1500D03*
G04 Draw part hole3*
G01X36000Y31500D03*
G04 Draw part hole4*
G01X2000Y31500D03*
G04 Draw part b01*
G54D15*
G01X6000Y21000D03*
G01X7000Y21000D03*
G01X8000Y21000D03*
G01X9000Y21000D03*
G01X10000Y21000D03*
G01X11000Y21000D03*
G01X12000Y21000D03*
G01X13000Y21000D03*
G01X14000Y21000D03*
G01X15000Y21000D03*
G01X16000Y21000D03*
G01X17000Y21000D03*
G01X18000Y21000D03*
G01X19000Y21000D03*
G01X20000Y21000D03*
G01X21000Y21000D03*
G01X10000Y29000D03*
G01X11000Y29000D03*
G01X12000Y29000D03*
G01X13000Y29000D03*
G01X14000Y29000D03*
G01X15000Y29000D03*
G01X16000Y29000D03*
G01X17000Y29000D03*
G01X18000Y29000D03*
G01X19000Y29000D03*
G01X20000Y29000D03*
G01X21000Y29000D03*
G04 Draw part pad3*
G54D13*
G01X10000Y31000D03*
G04 Draw part pad24*
G01X11000Y31000D03*
G04 Draw part pad25*
G01X12000Y31000D03*
G04 Draw part pad26*
G01X13000Y31000D03*
G04 Draw part pad27*
G01X14000Y31000D03*
G04 Draw part pad28*
G01X15000Y31000D03*
G04 Draw part pad29*
G01X16000Y31000D03*
G04 Draw part pad30*
G01X17000Y31000D03*
G04 Draw part pad31*
G01X18000Y31000D03*
G04 Draw part pad32*
G01X19000Y31000D03*
G04 Draw part pad33*
G01X20000Y31000D03*
G04 Draw part pad34*
G01X21000Y31000D03*
G04 Draw part pad35*
G01X6000Y19000D03*
G04 Draw part pad36*
G01X7000Y19000D03*
G04 Draw part pad37*
G01X8000Y19000D03*
G04 Draw part pad38*
G01X9000Y19000D03*
G04 Draw part pad39*
G01X10000Y19000D03*
G04 Draw part pad40*
G01X11000Y19000D03*
G04 Draw part pad41*
G01X12000Y19000D03*
G04 Draw part pad42*
G01X13000Y19000D03*
G04 Draw part pad43*
G01X14000Y19000D03*
G04 Draw part pad44*
G01X15000Y19000D03*
G04 Draw part pad45*
G01X16000Y19000D03*
G04 Draw part pad46*
G01X17000Y19000D03*
G04 Draw part pad47*
G01X18000Y19000D03*
G04 Draw part pad48*
G01X19000Y19000D03*
G04 Draw part pad49*
G01X20000Y19000D03*
G04 Draw part pad50*
G01X21000Y19000D03*
G04 Draw part ardpad01*
G01X5000Y14000D03*
G04 Draw part ardpad2*
G01X4000Y4000D03*
G04 Draw part ardpad3*
G01X4000Y14000D03*
G04 Draw part ardpad4*
G01X6000Y14000D03*
G04 Draw part ardpad5*
G01X7000Y14000D03*
G04 Draw part ardpad6*
G01X8000Y14000D03*
G04 Draw part ardpad7*
G01X9000Y14000D03*
G04 Draw part ardpad8*
G01X10000Y14000D03*
G04 Draw part ardpad9*
G01X11000Y14000D03*
G04 Draw part ardpad10*
G01X12000Y14000D03*
G04 Draw part ardpad11*
G01X13000Y14000D03*
G04 Draw part ardpad12*
G01X14000Y14000D03*
G04 Draw part ardpad13*
G01X15000Y14000D03*
G04 Draw part ardpad14*
G01X5000Y4000D03*
G04 Draw part ardpad15*
G01X6000Y4000D03*
G04 Draw part ardpad16*
G01X7000Y4000D03*
G04 Draw part ardpad17*
G01X8000Y4000D03*
G04 Draw part ardpad18*
G01X9000Y4000D03*
G04 Draw part ardpad19*
G01X10000Y4000D03*
G04 Draw part ardpad20*
G01X11000Y4000D03*
G04 Draw part ardpad21*
G01X12000Y4000D03*
G04 Draw part ardpad22*
G01X13000Y4000D03*
G04 Draw part ardpad23*
G01X14000Y4000D03*
G04 Draw part ardpad24*
G01X15000Y4000D03*
G04 Draw part ardpad25*
G01X2000Y10500D03*
G04 Draw part ardpad26*
G01X2000Y9500D03*
G04 Draw part ardpad27*
G01X2000Y8500D03*
G04 Draw part ardpad28*
G01X2000Y7500D03*
G04 Draw part ardpad29*
G01X17800Y6500D03*
G04 Draw part ardpad30*
G01X17800Y7500D03*
G04 Draw part ardpad31*
G01X17800Y8500D03*
G04 Draw part ardpad32*
G01X17800Y9500D03*
G04 Draw part ardpad33*
G01X17800Y10500D03*
G04 Draw part ardpad34*
G01X17800Y11500D03*
G04 Draw part RJ11*
G54D16*
G01X30500Y5000D03*
G01X30500Y9000D03*
G54D12*
G01X33000Y5750D03*
G01X33000Y6750D03*
G01X33000Y7750D03*
G01X34000Y6250D03*
G01X34000Y7250D03*
G01X34000Y8250D03*

G04 Draw traces*
G54D17*
G01X27000Y23000D03*
G01X27000Y15000D03*
G01X27000Y12000D03*
G01X30500Y7000D03*
G01X25000Y25000D03*
G01X26000Y24000D03*
G01X26000Y15000D03*
G01X26000Y13000D03*
G01X23000Y24000D03*
G01X19600Y13200D03*
G01X29200Y18000D03*

G04 Draw Text*

G04 Draw solder mask cutouts*
M00*
M02*
