;Holesize 1 =   40.0 PLATED MILS
;Holesize 2 =  125.0 PLATED MILS
;Holesize 3 =  128.0 PLATED MILS
;Holesize 4 =   35.0 PLATED MILS
;Holesize 5 =   14.0 PLATED MILS
M48
INCH,00.0000
T01C0.040
T02C0.125
T03C0.128
T04C0.035
T05C0.014
%
G05
G90
T01
X004000Y006000
X005000Y006000
X006000Y006000
X007000Y006000
X008000Y006000
X009000Y006000
X010000Y006000
X011000Y006000
X012000Y006000
X013000Y006000
X014000Y006000
X015000Y006000
X015000Y012000
X014000Y012000
X013000Y012000
X012000Y012000
X011000Y012000
X010000Y012000
X009000Y012000
X008000Y012000
X007000Y012000
X006000Y012000
X005000Y012000
X004000Y012000
X016000Y006500
X016000Y007500
X016000Y008500
X016000Y009500
X016000Y010500
X016000Y011500
X004000Y007500
X004000Y008500
X004000Y009500
X004000Y010500
X021000Y008000
X022000Y008000
X023000Y008000
X024000Y008000
X025000Y008000
X026000Y008000
X027000Y008000
X027000Y011000
X026000Y011000
X025000Y011000
X024000Y011000
X023000Y011000
X022000Y011000
X021000Y011000
X032000Y012000
X032000Y013000
X032000Y014000
X032000Y015000
X032000Y017000
X032000Y018000
X032000Y020000
X019000Y005000
X023000Y005000
X024000Y005000
X026000Y005000
X016000Y016000
X020000Y016000
X032000Y022000
X028000Y022000
X032000Y027000
X028000Y027000
X036000Y025000
X036000Y029000
X034000Y024000
X034000Y028000
X006000Y021000
X007000Y021000
X008000Y021000
X009000Y021000
X010000Y021000
X011000Y021000
X012000Y021000
X013000Y021000
X014000Y021000
X015000Y021000
X016000Y021000
X017000Y021000
X018000Y021000
X019000Y021000
X020000Y021000
X021000Y021000
X010000Y029000
X011000Y029000
X012000Y029000
X013000Y029000
X014000Y029000
X015000Y029000
X016000Y029000
X017000Y029000
X018000Y029000
X019000Y029000
X020000Y029000
X021000Y029000
X010000Y031000
X011000Y031000
X012000Y031000
X013000Y031000
X014000Y031000
X015000Y031000
X016000Y031000
X017000Y031000
X018000Y031000
X019000Y031000
X020000Y031000
X021000Y031000
X006000Y019000
X007000Y019000
X008000Y019000
X009000Y019000
X010000Y019000
X011000Y019000
X012000Y019000
X013000Y019000
X014000Y019000
X015000Y019000
X016000Y019000
X017000Y019000
X018000Y019000
X019000Y019000
X020000Y019000
X021000Y019000
X005000Y014000
X004000Y004000
X004000Y014000
X006000Y014000
X007000Y014000
X008000Y014000
X009000Y014000
X010000Y014000
X011000Y014000
X012000Y014000
X013000Y014000
X014000Y014000
X015000Y014000
X005000Y004000
X006000Y004000
X007000Y004000
X008000Y004000
X009000Y004000
X010000Y004000
X011000Y004000
X012000Y004000
X013000Y004000
X014000Y004000
X015000Y004000
X002000Y010500
X002000Y009500
X002000Y008500
X002000Y007500
X017800Y006500
X017800Y007500
X017800Y008500
X017800Y009500
X017800Y010500
X017800Y011500
T02
X002000Y001500
X036000Y001500
X036000Y031500
X002000Y031500
T03
X030500Y005000
X030500Y009000
T04
X033000Y005750
X033000Y006750
X033000Y007750
X034000Y006250
X034000Y007250
X034000Y008250
T05
X027000Y023000
X027000Y015000
X027000Y012000
X030500Y007000
X025000Y025000
X026000Y024000
X026000Y015000
X026000Y013000
X023000Y024000
X019600Y013200
X029200Y018000
M30
